<svg version="1.1" xmlns="http://www.w3.org/2000/svg" xmlns:xlink="http://www.w3.org/1999/xlink" width="1506" height="566"><defs><clipPath id="TdBWVEeayCme"><path fill="none" stroke="none" d=" M 0 0 L 1506 0 L 1506 566 L 0 566 L 0 0 Z"/></clipPath></defs><g transform="scale(1,1)" clip-path="url(#TdBWVEeayCme)"><g><rect fill="rgb(255,255,255)" stroke="none" x="0" y="0" width="1506" height="566" fill-opacity="1"/><path fill="rgb(21,101,192)" stroke="none" paint-order="stroke fill markers" fill-rule="evenodd" d=" M 238.35269187326708 192.68876494083702 L 248.49999999999977 75 L 345.71267566087727 78.51056492504893 L 370.29049285442227 159.9599003438094 Z" fill-opacity="0.09803921568627451"/><path fill="none" stroke="rgb(0,0,0)" paint-order="fill stroke markers" d=" M 373.3448752500534 138.2811845592214 C 373.3448752500534 181.61365255716208 338.21696929919926 216.74155850801628 294.88450130125864 216.74155850801628 C 251.55203330331798 216.74155850801628 216.4241273524638 181.61365255716208 216.4241273524638 138.2811845592214 C 216.4241273524638 94.94871656128072 251.55203330331798 59.82081061042652 294.88450130125864 59.82081061042652 C 338.21696929919926 59.82081061042652 373.3448752500534 94.94871656128072 373.3448752500534 138.2811845592214 Z" stroke-opacity="0.8" stroke-linecap="round" stroke-linejoin="round" stroke-miterlimit="10" stroke-width="2.5"/><path fill="rgb(0,0,255)" stroke="none" paint-order="stroke fill markers" d=" M 257.76435751625047 187.87345218204155 C 255.70483111637998 179.57101371962605 248.59319981573924 173.49751353572734 240.07074861440958 172.7626945546767 L 238.35269187326708 192.68876494083702 Z" fill-opacity="0.09803921568627451"/><path fill="none" stroke="rgb(0,0,255)" paint-order="fill stroke markers" d=" M 257.76435751625047 187.87345218204155 C 255.70483111637998 179.57101371962605 248.59319981573924 173.49751353572734 240.07074861440958 172.7626945546767 L 238.35269187326708 192.68876494083702 Z" stroke-opacity="0.6" stroke-linecap="round" stroke-linejoin="round" stroke-miterlimit="10" stroke-width="2"/><text fill="rgb(0,0,255)" stroke="none" font-family="geogebra-sans-serif, sans-serif" font-size="20px" font-style="normal" font-weight="normal" text-decoration="normal" x="261" y="171" text-anchor="start" dominant-baseline="alphabetic" fill-opacity="1">α</text><path fill="rgb(102,204,0)" stroke="none" paint-order="stroke fill markers" d=" M 246.78194325885727 94.92607038616035 C 252.2391998899327 95.39660352999965 257.650622625291 93.60830881478427 261.7529078470254 89.9786659485498 C 265.85519306876006 86.34902308231528 268.28929587334505 81.19570982326235 268.4869718212366 75.72177379911182 L 248.49999999999977 75 Z" fill-opacity="0.09803921568627451"/><path fill="none" stroke="rgb(102,204,0)" paint-order="fill stroke markers" d=" M 246.78194325885727 94.92607038616035 C 252.2391998899327 95.39660352999965 257.650622625291 93.60830881478427 261.7529078470254 89.9786659485498 C 265.85519306876006 86.34902308231528 268.28929587334505 81.19570982326235 268.4869718212366 75.72177379911182 L 248.49999999999977 75 Z" stroke-opacity="0.6" stroke-linecap="round" stroke-linejoin="round" stroke-miterlimit="10" stroke-width="2"/><path fill="none" stroke="rgb(102,204,0)" paint-order="fill stroke markers" d=" M 259.433648973796 87.35739940755354 L 264.072166720255 92.59993248954596" stroke-opacity="0.6" stroke-linecap="round" stroke-linejoin="round" stroke-miterlimit="10" stroke-width="2"/><text fill="rgb(102,204,0)" stroke="none" font-family="geogebra-sans-serif, sans-serif" font-size="20px" font-style="normal" font-weight="normal" text-decoration="normal" x="270" y="107" text-anchor="start" dominant-baseline="alphabetic" fill-opacity="1">β</text><path fill="rgb(0,0,255)" stroke="none" paint-order="stroke fill markers" d=" M 325.72570383964046 77.78879112593711 C 325.49275059530794 84.23960706837045 328.3875621965924 90.40626738378785 333.49917167620265 94.34818849730033 C 338.6107811558128 98.29010961081286 345.3106764430321 99.52260171746974 351.4904704883341 97.65781242780537 L 345.71267566087727 78.51056492504893 Z" fill-opacity="0.09803921568627451"/><path fill="none" stroke="rgb(0,0,255)" paint-order="fill stroke markers" d=" M 325.72570383964046 77.78879112593711 C 325.49275059530794 84.23960706837045 328.3875621965924 90.40626738378785 333.49917167620265 94.34818849730033 C 338.6107811558128 98.29010961081286 345.3106764430321 99.52260171746974 351.4904704883341 97.65781242780537 L 345.71267566087727 78.51056492504893 Z" stroke-opacity="0.6" stroke-linecap="round" stroke-linejoin="round" stroke-miterlimit="10" stroke-width="2"/><path fill="none" stroke="rgb(0,0,255)" paint-order="fill stroke markers" d=" M 331.72179538601154 78.00532326567065 C 331.55872811497875 82.52089442537397 333.5850962358778 86.83755664616615 337.16322287160494 89.59690142562494 C 340.7413495073322 92.35624620508366 345.4312762083856 93.21899067974351 349.75713204009696 91.9136381769784" stroke-opacity="0.6" stroke-linecap="round" stroke-linejoin="round" stroke-miterlimit="10" stroke-width="2"/><text fill="rgb(0,0,255)" stroke="none" font-family="geogebra-sans-serif, sans-serif" font-size="20px" font-style="normal" font-weight="normal" text-decoration="normal" x="322" y="115" text-anchor="start" dominant-baseline="alphabetic" fill-opacity="1">γ</text><path fill="rgb(0,204,0)" stroke="none" paint-order="stroke fill markers" d=" M 364.5126980269655 140.81265284105297 C 354.3092828907472 143.89159351845052 348.3127855346054 154.43089165314797 350.8788272114389 164.77521310260488 L 370.29049285442227 159.9599003438094 Z" fill-opacity="0.09803921568627451"/><path fill="none" stroke="rgb(0,204,0)" paint-order="fill stroke markers" d=" M 364.5126980269655 140.81265284105297 C 354.3092828907472 143.89159351845052 348.3127855346054 154.43089165314797 350.8788272114389 164.77521310260488 L 370.29049285442227 159.9599003438094 Z" stroke-opacity="0.6" stroke-linecap="round" stroke-linejoin="round" stroke-miterlimit="10" stroke-width="2"/><path fill="none" stroke="rgb(0,204,0)" paint-order="fill stroke markers" d=" M 355.00693261174933 153.7419596631188 L 348.5229979633427 151.104045434947" stroke-opacity="0.6" stroke-linecap="round" stroke-linejoin="round" stroke-miterlimit="10" stroke-width="2"/><path fill="none" stroke="rgb(0,204,0)" paint-order="fill stroke markers" d=" M 357.13702876786016 149.99815438622147 L 351.55677127659135 145.77195913148716" stroke-opacity="0.6" stroke-linecap="round" stroke-linejoin="round" stroke-miterlimit="10" stroke-width="2"/><text fill="rgb(0,204,0)" stroke="none" font-family="geogebra-sans-serif, sans-serif" font-size="20px" font-style="normal" font-weight="normal" text-decoration="normal" x="330" y="152" text-anchor="start" dominant-baseline="alphabetic" fill-opacity="1">δ</text><path fill="none" stroke="rgb(21,101,192)" paint-order="fill stroke markers" d=" M 238.35269187326708 192.68876494083702 L 248.49999999999977 75" stroke-opacity="0.8" stroke-linecap="round" stroke-linejoin="round" stroke-miterlimit="10" stroke-width="2.5"/><path fill="none" stroke="rgb(21,101,192)" paint-order="fill stroke markers" d=" M 248.49999999999977 75 L 345.71267566087727 78.51056492504893" stroke-opacity="0.8" stroke-linecap="round" stroke-linejoin="round" stroke-miterlimit="10" stroke-width="2.5"/><path fill="none" stroke="rgb(21,101,192)" paint-order="fill stroke markers" d=" M 345.71267566087727 78.51056492504893 L 370.29049285442227 159.9599003438094" stroke-opacity="0.8" stroke-linecap="round" stroke-linejoin="round" stroke-miterlimit="10" stroke-width="2.5"/><path fill="none" stroke="rgb(21,101,192)" paint-order="fill stroke markers" d=" M 370.29049285442227 159.9599003438094 L 238.35269187326708 192.68876494083702" stroke-opacity="0.8" stroke-linecap="round" stroke-linejoin="round" stroke-miterlimit="10" stroke-width="2.5"/><path fill="rgb(21,101,204)" stroke="none" paint-order="stroke fill markers" d=" M 253.49999999999977 75 C 253.49999999999977 77.76142374915396 251.26142374915375 80 248.49999999999977 80 C 245.7385762508458 80 243.49999999999977 77.76142374915396 243.49999999999977 75 C 243.49999999999977 72.23857625084604 245.7385762508458 70 248.49999999999977 70 C 251.26142374915375 70 253.49999999999977 72.23857625084604 253.49999999999977 75 Z" fill-opacity="1"/><path fill="none" stroke="rgb(0,0,0)" paint-order="fill stroke markers" d=" M 253.49999999999977 75 C 253.49999999999977 77.76142374915396 251.26142374915375 80 248.49999999999977 80 C 245.7385762508458 80 243.49999999999977 77.76142374915396 243.49999999999977 75 C 243.49999999999977 72.23857625084604 245.7385762508458 70 248.49999999999977 70 C 251.26142374915375 70 253.49999999999977 72.23857625084604 253.49999999999977 75 Z" stroke-opacity="1" stroke-linecap="round" stroke-linejoin="round" stroke-miterlimit="10"/><text fill="rgb(21,101,204)" stroke="none" font-family="geogebra-sans-serif, sans-serif" font-size="20px" font-style="normal" font-weight="normal" text-decoration="normal" x="227" y="71" text-anchor="start" dominant-baseline="alphabetic" fill-opacity="1">B</text><path fill="rgb(21,101,192)" stroke="none" paint-order="stroke fill markers" d=" M 243.35269187326708 192.68876494083702 C 243.35269187326708 195.450188689991 241.11411562242105 197.68876494083702 238.35269187326708 197.68876494083702 C 235.5912681241131 197.68876494083702 233.35269187326708 195.450188689991 233.35269187326708 192.68876494083702 C 233.35269187326708 189.92734119168304 235.5912681241131 187.68876494083702 238.35269187326708 187.68876494083702 C 241.11411562242105 187.68876494083702 243.35269187326708 189.92734119168304 243.35269187326708 192.68876494083702 Z" fill-opacity="1"/><path fill="none" stroke="rgb(0,0,0)" paint-order="fill stroke markers" d=" M 243.35269187326708 192.68876494083702 C 243.35269187326708 195.450188689991 241.11411562242105 197.68876494083702 238.35269187326708 197.68876494083702 C 235.5912681241131 197.68876494083702 233.35269187326708 195.450188689991 233.35269187326708 192.68876494083702 C 233.35269187326708 189.92734119168304 235.5912681241131 187.68876494083702 238.35269187326708 187.68876494083702 C 241.11411562242105 187.68876494083702 243.35269187326708 189.92734119168304 243.35269187326708 192.68876494083702 Z" stroke-opacity="1" stroke-linecap="round" stroke-linejoin="round" stroke-miterlimit="10"/><text fill="rgb(21,101,192)" stroke="none" font-family="geogebra-sans-serif, sans-serif" font-size="20px" font-style="normal" font-weight="normal" text-decoration="normal" x="217" y="206" text-anchor="start" dominant-baseline="alphabetic" fill-opacity="1">A</text><path fill="rgb(21,101,192)" stroke="none" paint-order="stroke fill markers" d=" M 350.71267566087727 78.51056492504893 C 350.71267566087727 81.27198867420289 348.4740994100312 83.51056492504893 345.71267566087727 83.51056492504893 C 342.9512519117233 83.51056492504893 340.71267566087727 81.27198867420289 340.71267566087727 78.51056492504893 C 340.71267566087727 75.74914117589496 342.9512519117233 73.51056492504893 345.71267566087727 73.51056492504893 C 348.4740994100312 73.51056492504893 350.71267566087727 75.74914117589496 350.71267566087727 78.51056492504893 Z" fill-opacity="1"/><path fill="none" stroke="rgb(0,0,0)" paint-order="fill stroke markers" d=" M 350.71267566087727 78.51056492504893 C 350.71267566087727 81.27198867420289 348.4740994100312 83.51056492504893 345.71267566087727 83.51056492504893 C 342.9512519117233 83.51056492504893 340.71267566087727 81.27198867420289 340.71267566087727 78.51056492504893 C 340.71267566087727 75.74914117589496 342.9512519117233 73.51056492504893 345.71267566087727 73.51056492504893 C 348.4740994100312 73.51056492504893 350.71267566087727 75.74914117589496 350.71267566087727 78.51056492504893 Z" stroke-opacity="1" stroke-linecap="round" stroke-linejoin="round" stroke-miterlimit="10"/><text fill="rgb(21,101,192)" stroke="none" font-family="geogebra-sans-serif, sans-serif" font-size="20px" font-style="normal" font-weight="normal" text-decoration="normal" x="353" y="76" text-anchor="start" dominant-baseline="alphabetic" fill-opacity="1">C</text><path fill="rgb(21,101,192)" stroke="none" paint-order="stroke fill markers" d=" M 375.29049285442227 159.9599003438094 C 375.29049285442227 162.72132409296339 373.0519166035762 164.9599003438094 370.29049285442227 164.9599003438094 C 367.5290691052683 164.9599003438094 365.29049285442227 162.72132409296339 365.29049285442227 159.9599003438094 C 365.29049285442227 157.19847659465543 367.5290691052683 154.9599003438094 370.29049285442227 154.9599003438094 C 373.0519166035762 154.9599003438094 375.29049285442227 157.19847659465543 375.29049285442227 159.9599003438094 Z" fill-opacity="1"/><path fill="none" stroke="rgb(0,0,0)" paint-order="fill stroke markers" d=" M 375.29049285442227 159.9599003438094 C 375.29049285442227 162.72132409296339 373.0519166035762 164.9599003438094 370.29049285442227 164.9599003438094 C 367.5290691052683 164.9599003438094 365.29049285442227 162.72132409296339 365.29049285442227 159.9599003438094 C 365.29049285442227 157.19847659465543 367.5290691052683 154.9599003438094 370.29049285442227 154.9599003438094 C 373.0519166035762 154.9599003438094 375.29049285442227 157.19847659465543 375.29049285442227 159.9599003438094 Z" stroke-opacity="1" stroke-linecap="round" stroke-linejoin="round" stroke-miterlimit="10"/><text fill="rgb(21,101,192)" stroke="none" font-family="geogebra-sans-serif, sans-serif" font-size="20px" font-style="normal" font-weight="normal" text-decoration="normal" x="380" y="163" text-anchor="start" dominant-baseline="alphabetic" fill-opacity="1">D</text></g></g></svg>